<mxfile host="65bd71144e">
    <diagram id="VGDtO65n6YHKXGimb14S" name="第 1 页">
        <mxGraphModel dx="968" dy="1557" grid="1" gridSize="10" guides="1" tooltips="1" connect="1" arrows="1" fold="1" page="1" pageScale="1" pageWidth="1169" pageHeight="827" math="0" shadow="0">
            <root>
                <mxCell id="0"/>
                <mxCell id="1" parent="0"/>
                <mxCell id="2" value="Kubernetes 集群" style="swimlane;horizontal=0;" parent="1" vertex="1">
                    <mxGeometry x="1135" y="-120" width="585" height="520" as="geometry"/>
                </mxCell>
                <mxCell id="18" value="ingress 80" style="swimlane;fontStyle=0;childLayout=stackLayout;horizontal=1;startSize=30;horizontalStack=0;resizeParent=1;resizeParentMax=0;resizeLast=0;collapsible=1;marginBottom=0;" parent="2" vertex="1">
                    <mxGeometry x="60" y="229" width="140" height="120" as="geometry"/>
                </mxCell>
                <mxCell id="19" value="/oreo" style="text;strokeColor=none;fillColor=none;align=left;verticalAlign=middle;spacingLeft=4;spacingRight=4;overflow=hidden;points=[[0,0.5],[1,0.5]];portConstraint=eastwest;rotatable=0;" parent="18" vertex="1">
                    <mxGeometry y="30" width="140" height="30" as="geometry"/>
                </mxCell>
                <mxCell id="20" value="/eapi" style="text;strokeColor=none;fillColor=none;align=left;verticalAlign=middle;spacingLeft=4;spacingRight=4;overflow=hidden;points=[[0,0.5],[1,0.5]];portConstraint=eastwest;rotatable=0;" parent="18" vertex="1">
                    <mxGeometry y="60" width="140" height="30" as="geometry"/>
                </mxCell>
                <mxCell id="21" value="/pages" style="text;strokeColor=none;fillColor=none;align=left;verticalAlign=middle;spacingLeft=4;spacingRight=4;overflow=hidden;points=[[0,0.5],[1,0.5]];portConstraint=eastwest;rotatable=0;" parent="18" vertex="1">
                    <mxGeometry y="90" width="140" height="30" as="geometry"/>
                </mxCell>
                <mxCell id="25" value="" style="edgeStyle=none;html=1;" parent="2" source="22" target="24" edge="1">
                    <mxGeometry relative="1" as="geometry"/>
                </mxCell>
                <mxCell id="22" value="Service" style="rounded=0;whiteSpace=wrap;html=1;" parent="2" vertex="1">
                    <mxGeometry x="235" y="274" width="120" height="60" as="geometry"/>
                </mxCell>
                <mxCell id="23" style="edgeStyle=none;html=1;" parent="2" source="20" target="22" edge="1">
                    <mxGeometry relative="1" as="geometry"/>
                </mxCell>
                <mxCell id="zD5gW-3lHXW1VmN1dg0t-61" style="edgeStyle=none;html=1;" parent="2" source="24" target="zD5gW-3lHXW1VmN1dg0t-60" edge="1">
                    <mxGeometry relative="1" as="geometry"/>
                </mxCell>
                <mxCell id="32" style="edgeStyle=none;html=1;fontSize=12;" edge="1" parent="2" source="24" target="31">
                    <mxGeometry relative="1" as="geometry"/>
                </mxCell>
                <mxCell id="24" value="Pod" style="rounded=0;whiteSpace=wrap;html=1;" parent="2" vertex="1">
                    <mxGeometry x="425" y="274" width="120" height="60" as="geometry"/>
                </mxCell>
                <mxCell id="zD5gW-3lHXW1VmN1dg0t-60" value="ARMS" style="rounded=0;whiteSpace=wrap;html=1;" parent="2" vertex="1">
                    <mxGeometry x="235" y="390" width="120" height="60" as="geometry"/>
                </mxCell>
                <mxCell id="zD5gW-3lHXW1VmN1dg0t-65" value="" style="edgeStyle=none;html=1;" parent="2" source="zD5gW-3lHXW1VmN1dg0t-64" target="24" edge="1">
                    <mxGeometry relative="1" as="geometry"/>
                </mxCell>
                <mxCell id="zD5gW-3lHXW1VmN1dg0t-68" value="第一轮" style="edgeLabel;html=1;align=center;verticalAlign=middle;resizable=0;points=[];fontColor=#00FF00;" parent="zD5gW-3lHXW1VmN1dg0t-65" vertex="1" connectable="0">
                    <mxGeometry x="-0.2351" relative="1" as="geometry">
                        <mxPoint y="1" as="offset"/>
                    </mxGeometry>
                </mxCell>
                <mxCell id="zD5gW-3lHXW1VmN1dg0t-69" value="第二轮" style="edgeStyle=none;html=1;fontColor=#00FF00;" parent="2" source="zD5gW-3lHXW1VmN1dg0t-64" target="22" edge="1">
                    <mxGeometry relative="1" as="geometry"/>
                </mxCell>
                <mxCell id="zD5gW-3lHXW1VmN1dg0t-70" value="第三轮" style="edgeStyle=none;html=1;fontColor=#00FF00;" parent="2" source="zD5gW-3lHXW1VmN1dg0t-64" target="18" edge="1">
                    <mxGeometry relative="1" as="geometry"/>
                </mxCell>
                <mxCell id="zD5gW-3lHXW1VmN1dg0t-64" value="压力测试&lt;br&gt;Pod" style="rounded=0;whiteSpace=wrap;html=1;fillColor=#ffe6cc;strokeColor=#d79b00;" parent="2" vertex="1">
                    <mxGeometry x="425" y="40" width="120" height="60" as="geometry"/>
                </mxCell>
                <mxCell id="zD5gW-3lHXW1VmN1dg0t-66" value="制作一个测试 Pod ，在镜像内部放置测试工具&lt;br&gt;&lt;br&gt;在 Kubernetes 内部，实现 Pod 对 Pod 请求，不经过 Service 和 ingress，直接将流量发送给测试 pod" style="whiteSpace=wrap;html=1;rounded=0;arcSize=50;align=center;verticalAlign=middle;strokeWidth=1;autosize=1;spacing=4;treeFolding=1;treeMoving=1;newEdgeStyle={&quot;edgeStyle&quot;:&quot;entityRelationEdgeStyle&quot;,&quot;startArrow&quot;:&quot;none&quot;,&quot;endArrow&quot;:&quot;none&quot;,&quot;segment&quot;:10,&quot;curved&quot;:1};glass=0;fillColor=#fff2cc;strokeColor=#d6b656;" parent="2" vertex="1">
                    <mxGeometry x="40" y="40" width="200" height="120" as="geometry"/>
                </mxCell>
                <mxCell id="zD5gW-3lHXW1VmN1dg0t-67" value="" style="edgeStyle=entityRelationEdgeStyle;startArrow=none;endArrow=none;segment=10;curved=1;" parent="2" source="zD5gW-3lHXW1VmN1dg0t-64" target="zD5gW-3lHXW1VmN1dg0t-66" edge="1">
                    <mxGeometry relative="1" as="geometry">
                        <mxPoint x="580" y="357" as="sourcePoint"/>
                    </mxGeometry>
                </mxCell>
                <mxCell id="31" value="日志" style="rounded=0;whiteSpace=wrap;html=1;fontSize=12;" vertex="1" parent="2">
                    <mxGeometry x="425" y="390" width="120" height="60" as="geometry"/>
                </mxCell>
                <mxCell id="zD5gW-3lHXW1VmN1dg0t-51" value="外部因素分析" style="edgeStyle=none;html=1;" parent="1" source="3" target="zD5gW-3lHXW1VmN1dg0t-44" edge="1">
                    <mxGeometry relative="1" as="geometry"/>
                </mxCell>
                <mxCell id="zD5gW-3lHXW1VmN1dg0t-71" value="内部因素分析" style="edgeStyle=none;html=1;" parent="1" source="3" target="zD5gW-3lHXW1VmN1dg0t-64" edge="1">
                    <mxGeometry relative="1" as="geometry"/>
                </mxCell>
                <mxCell id="44" style="edgeStyle=none;html=1;fontSize=12;fontColor=#000000;" edge="1" parent="1" source="3" target="43">
                    <mxGeometry relative="1" as="geometry"/>
                </mxCell>
                <mxCell id="3" value="Tester" style="shape=umlActor;verticalLabelPosition=bottom;verticalAlign=top;html=1;outlineConnect=0;" parent="1" vertex="1">
                    <mxGeometry x="1005" y="-247" width="30" height="60" as="geometry"/>
                </mxCell>
                <mxCell id="7" value="" style="edgeStyle=none;html=1;" parent="1" source="4" target="6" edge="1">
                    <mxGeometry relative="1" as="geometry"/>
                </mxCell>
                <mxCell id="4" value="DNS" style="whiteSpace=wrap;html=1;verticalAlign=middle;" parent="1" vertex="1">
                    <mxGeometry x="110" y="250" width="120" height="60" as="geometry"/>
                </mxCell>
                <mxCell id="9" value="" style="edgeStyle=none;html=1;" parent="1" source="6" target="8" edge="1">
                    <mxGeometry relative="1" as="geometry"/>
                </mxCell>
                <mxCell id="zD5gW-3lHXW1VmN1dg0t-53" value="" style="edgeStyle=none;html=1;" parent="1" source="6" target="zD5gW-3lHXW1VmN1dg0t-52" edge="1">
                    <mxGeometry relative="1" as="geometry"/>
                </mxCell>
                <mxCell id="6" value="WAF" style="whiteSpace=wrap;html=1;verticalAlign=middle;" parent="1" vertex="1">
                    <mxGeometry x="310" y="250" width="120" height="60" as="geometry"/>
                </mxCell>
                <mxCell id="11" value="" style="edgeStyle=none;html=1;" parent="1" source="8" target="10" edge="1">
                    <mxGeometry relative="1" as="geometry"/>
                </mxCell>
                <mxCell id="13" value="" style="edgeStyle=none;html=1;" parent="1" source="8" target="12" edge="1">
                    <mxGeometry relative="1" as="geometry"/>
                </mxCell>
                <mxCell id="zD5gW-3lHXW1VmN1dg0t-55" value="" style="edgeStyle=none;html=1;" parent="1" source="8" target="zD5gW-3lHXW1VmN1dg0t-54" edge="1">
                    <mxGeometry relative="1" as="geometry"/>
                </mxCell>
                <mxCell id="8" value="WLAN&lt;br&gt;SLB&lt;br&gt;SSL" style="whiteSpace=wrap;html=1;verticalAlign=middle;" parent="1" vertex="1">
                    <mxGeometry x="510" y="250" width="120" height="60" as="geometry"/>
                </mxCell>
                <mxCell id="15" style="edgeStyle=none;html=1;" parent="1" source="10" target="14" edge="1">
                    <mxGeometry relative="1" as="geometry"/>
                </mxCell>
                <mxCell id="10" value="Openresy 网关&lt;br&gt;ejiayou001" style="whiteSpace=wrap;html=1;verticalAlign=middle;" parent="1" vertex="1">
                    <mxGeometry x="725" y="240" width="120" height="60" as="geometry"/>
                </mxCell>
                <mxCell id="16" style="edgeStyle=none;html=1;" parent="1" source="12" target="14" edge="1">
                    <mxGeometry relative="1" as="geometry"/>
                </mxCell>
                <mxCell id="zD5gW-3lHXW1VmN1dg0t-57" value="" style="edgeStyle=none;html=1;" parent="1" source="12" target="zD5gW-3lHXW1VmN1dg0t-56" edge="1">
                    <mxGeometry relative="1" as="geometry"/>
                </mxCell>
                <mxCell id="12" value="Openresy 网关&lt;br&gt;ejiayou002" style="whiteSpace=wrap;html=1;verticalAlign=middle;" parent="1" vertex="1">
                    <mxGeometry x="725" y="310" width="120" height="60" as="geometry"/>
                </mxCell>
                <mxCell id="17" style="edgeStyle=none;html=1;" parent="1" source="14" target="2" edge="1">
                    <mxGeometry relative="1" as="geometry"/>
                </mxCell>
                <mxCell id="zD5gW-3lHXW1VmN1dg0t-59" value="" style="edgeStyle=none;html=1;" parent="1" source="14" target="zD5gW-3lHXW1VmN1dg0t-58" edge="1">
                    <mxGeometry relative="1" as="geometry"/>
                </mxCell>
                <mxCell id="14" value="K8s LAN&lt;br&gt;SLB" style="rounded=0;whiteSpace=wrap;html=1;" parent="1" vertex="1">
                    <mxGeometry x="925" y="240" width="120" height="60" as="geometry"/>
                </mxCell>
                <mxCell id="zD5gW-3lHXW1VmN1dg0t-33" value="第一轮" style="edgeStyle=none;html=1;fontColor=#FF0000;" parent="1" source="zD5gW-3lHXW1VmN1dg0t-31" target="18" edge="1">
                    <mxGeometry relative="1" as="geometry"/>
                </mxCell>
                <mxCell id="zD5gW-3lHXW1VmN1dg0t-34" style="edgeStyle=none;html=1;" parent="1" source="zD5gW-3lHXW1VmN1dg0t-31" target="14" edge="1">
                    <mxGeometry relative="1" as="geometry"/>
                </mxCell>
                <mxCell id="zD5gW-3lHXW1VmN1dg0t-35" value="第二轮" style="edgeLabel;html=1;align=center;verticalAlign=middle;resizable=0;points=[];fontColor=#FF0000;" parent="zD5gW-3lHXW1VmN1dg0t-34" vertex="1" connectable="0">
                    <mxGeometry x="-0.0077" y="-1" relative="1" as="geometry">
                        <mxPoint y="1" as="offset"/>
                    </mxGeometry>
                </mxCell>
                <mxCell id="zD5gW-3lHXW1VmN1dg0t-36" value="第三轮" style="edgeStyle=none;html=1;fontColor=#FF0000;" parent="1" source="zD5gW-3lHXW1VmN1dg0t-31" target="10" edge="1">
                    <mxGeometry relative="1" as="geometry"/>
                </mxCell>
                <mxCell id="zD5gW-3lHXW1VmN1dg0t-37" style="edgeStyle=none;html=1;" parent="1" source="zD5gW-3lHXW1VmN1dg0t-31" target="8" edge="1">
                    <mxGeometry relative="1" as="geometry"/>
                </mxCell>
                <mxCell id="zD5gW-3lHXW1VmN1dg0t-38" value="第四轮" style="edgeLabel;html=1;align=center;verticalAlign=middle;resizable=0;points=[];fontColor=#FF0000;" parent="zD5gW-3lHXW1VmN1dg0t-37" vertex="1" connectable="0">
                    <mxGeometry x="-0.1584" y="1" relative="1" as="geometry">
                        <mxPoint x="-1" as="offset"/>
                    </mxGeometry>
                </mxCell>
                <mxCell id="zD5gW-3lHXW1VmN1dg0t-39" value="第五轮" style="edgeStyle=none;html=1;fontColor=#FF0000;" parent="1" source="zD5gW-3lHXW1VmN1dg0t-31" target="6" edge="1">
                    <mxGeometry relative="1" as="geometry"/>
                </mxCell>
                <mxCell id="zD5gW-3lHXW1VmN1dg0t-40" value="第六轮" style="edgeStyle=none;html=1;fontColor=#FF0000;" parent="1" source="zD5gW-3lHXW1VmN1dg0t-31" target="4" edge="1">
                    <mxGeometry relative="1" as="geometry"/>
                </mxCell>
                <mxCell id="zD5gW-3lHXW1VmN1dg0t-31" value="阿里云 EIP&lt;br&gt;外网压测" style="rounded=0;whiteSpace=wrap;html=1;fillColor=#dae8fc;strokeColor=#6c8ebf;" parent="1" vertex="1">
                    <mxGeometry x="725" y="-10" width="120" height="60" as="geometry"/>
                </mxCell>
                <mxCell id="zD5gW-3lHXW1VmN1dg0t-45" style="edgeStyle=none;html=1;" parent="1" source="zD5gW-3lHXW1VmN1dg0t-41" target="zD5gW-3lHXW1VmN1dg0t-31" edge="1">
                    <mxGeometry relative="1" as="geometry"/>
                </mxCell>
                <mxCell id="zD5gW-3lHXW1VmN1dg0t-41" value="测试节点1" style="sketch=0;aspect=fixed;html=1;points=[];align=center;image;fontSize=12;image=img/lib/mscae/VirtualMachineWindows.svg;" parent="1" vertex="1">
                    <mxGeometry x="640" y="-130" width="50" height="46" as="geometry"/>
                </mxCell>
                <mxCell id="zD5gW-3lHXW1VmN1dg0t-46" style="edgeStyle=none;html=1;" parent="1" source="zD5gW-3lHXW1VmN1dg0t-42" target="zD5gW-3lHXW1VmN1dg0t-31" edge="1">
                    <mxGeometry relative="1" as="geometry"/>
                </mxCell>
                <mxCell id="zD5gW-3lHXW1VmN1dg0t-42" value="测试节点2" style="sketch=0;aspect=fixed;html=1;points=[];align=center;image;fontSize=12;image=img/lib/mscae/VirtualMachineWindows.svg;" parent="1" vertex="1">
                    <mxGeometry x="760" y="-130" width="50" height="46" as="geometry"/>
                </mxCell>
                <mxCell id="zD5gW-3lHXW1VmN1dg0t-47" style="edgeStyle=none;html=1;" parent="1" source="zD5gW-3lHXW1VmN1dg0t-43" target="zD5gW-3lHXW1VmN1dg0t-31" edge="1">
                    <mxGeometry relative="1" as="geometry"/>
                </mxCell>
                <mxCell id="zD5gW-3lHXW1VmN1dg0t-43" value="测试节点3" style="sketch=0;aspect=fixed;html=1;points=[];align=center;image;fontSize=12;image=img/lib/mscae/VirtualMachineWindows.svg;" parent="1" vertex="1">
                    <mxGeometry x="880" y="-130" width="50" height="46" as="geometry"/>
                </mxCell>
                <mxCell id="zD5gW-3lHXW1VmN1dg0t-48" style="edgeStyle=none;html=1;" parent="1" source="zD5gW-3lHXW1VmN1dg0t-44" target="zD5gW-3lHXW1VmN1dg0t-41" edge="1">
                    <mxGeometry relative="1" as="geometry"/>
                </mxCell>
                <mxCell id="zD5gW-3lHXW1VmN1dg0t-49" style="edgeStyle=none;html=1;" parent="1" source="zD5gW-3lHXW1VmN1dg0t-44" target="zD5gW-3lHXW1VmN1dg0t-42" edge="1">
                    <mxGeometry relative="1" as="geometry"/>
                </mxCell>
                <mxCell id="zD5gW-3lHXW1VmN1dg0t-50" style="edgeStyle=none;html=1;" parent="1" source="zD5gW-3lHXW1VmN1dg0t-44" target="zD5gW-3lHXW1VmN1dg0t-43" edge="1">
                    <mxGeometry relative="1" as="geometry"/>
                </mxCell>
                <mxCell id="zD5gW-3lHXW1VmN1dg0t-44" value="Jmeter 主控" style="sketch=0;aspect=fixed;html=1;points=[];align=center;image;fontSize=12;image=img/lib/mscae/VM_Windows_Non_Azure.svg;" parent="1" vertex="1">
                    <mxGeometry x="760" y="-240" width="50" height="46" as="geometry"/>
                </mxCell>
                <mxCell id="zD5gW-3lHXW1VmN1dg0t-52" value="阿里云日志" style="whiteSpace=wrap;html=1;verticalAlign=middle;" parent="1" vertex="1">
                    <mxGeometry x="310" y="390" width="120" height="60" as="geometry"/>
                </mxCell>
                <mxCell id="zD5gW-3lHXW1VmN1dg0t-54" value="阿里云日志" style="whiteSpace=wrap;html=1;verticalAlign=middle;" parent="1" vertex="1">
                    <mxGeometry x="510" y="390" width="120" height="60" as="geometry"/>
                </mxCell>
                <mxCell id="zD5gW-3lHXW1VmN1dg0t-56" value="Openresy 日志&lt;br&gt;/var/log/nginx/" style="whiteSpace=wrap;html=1;verticalAlign=middle;" parent="1" vertex="1">
                    <mxGeometry x="725" y="390" width="120" height="60" as="geometry"/>
                </mxCell>
                <mxCell id="zD5gW-3lHXW1VmN1dg0t-58" value="阿里云日志" style="rounded=0;whiteSpace=wrap;html=1;" parent="1" vertex="1">
                    <mxGeometry x="925" y="380" width="120" height="60" as="geometry"/>
                </mxCell>
                <mxCell id="30" value="&lt;meta charset=&quot;utf-8&quot; style=&quot;font-size: 45px;&quot;&gt;&lt;div style=&quot;background-color: rgb(255, 255, 255); font-family: menlo, monaco, &amp;quot;courier new&amp;quot;, monospace; font-weight: normal; font-size: 45px; line-height: 18px;&quot;&gt;&lt;div style=&quot;font-size: 45px;&quot;&gt;&lt;span style=&quot;font-weight: bold; font-size: 45px;&quot;&gt;压力测试与瓶颈分析方案&lt;/span&gt;&lt;/div&gt;&lt;/div&gt;" style="text;whiteSpace=wrap;html=1;fontSize=45;fontColor=#000000;" vertex="1" parent="1">
                    <mxGeometry x="120" y="-235" width="530" height="50" as="geometry"/>
                </mxCell>
                <mxCell id="36" style="edgeStyle=none;html=1;fontSize=12;" edge="1" parent="1" source="35" target="zD5gW-3lHXW1VmN1dg0t-52">
                    <mxGeometry relative="1" as="geometry"/>
                </mxCell>
                <mxCell id="37" style="edgeStyle=none;html=1;fontSize=12;" edge="1" parent="1" source="35" target="zD5gW-3lHXW1VmN1dg0t-54">
                    <mxGeometry relative="1" as="geometry"/>
                </mxCell>
                <mxCell id="38" style="edgeStyle=none;html=1;fontSize=12;" edge="1" parent="1" source="35" target="zD5gW-3lHXW1VmN1dg0t-56">
                    <mxGeometry relative="1" as="geometry"/>
                </mxCell>
                <mxCell id="39" style="edgeStyle=none;html=1;fontSize=12;" edge="1" parent="1" source="35" target="zD5gW-3lHXW1VmN1dg0t-58">
                    <mxGeometry relative="1" as="geometry"/>
                </mxCell>
                <mxCell id="40" style="edgeStyle=none;html=1;fontSize=12;" edge="1" parent="1" source="35" target="31">
                    <mxGeometry relative="1" as="geometry"/>
                </mxCell>
                <mxCell id="41" style="edgeStyle=none;html=1;fontSize=12;" edge="1" parent="1" source="35" target="zD5gW-3lHXW1VmN1dg0t-60">
                    <mxGeometry relative="1" as="geometry"/>
                </mxCell>
                <mxCell id="35" value="瓶颈分析" style="shape=umlActor;verticalLabelPosition=bottom;verticalAlign=top;html=1;outlineConnect=0;fontSize=12;" vertex="1" parent="1">
                    <mxGeometry x="1135" y="510" width="30" height="60" as="geometry"/>
                </mxCell>
                <mxCell id="45" value="第一轮" style="edgeStyle=none;html=1;fontSize=12;fontColor=#000000;" edge="1" parent="1" source="43" target="18">
                    <mxGeometry relative="1" as="geometry"/>
                </mxCell>
                <mxCell id="46" style="edgeStyle=none;html=1;fontSize=12;fontColor=#000000;" edge="1" parent="1" source="43" target="14">
                    <mxGeometry relative="1" as="geometry"/>
                </mxCell>
                <mxCell id="51" value="第二轮" style="edgeLabel;html=1;align=center;verticalAlign=middle;resizable=0;points=[];fontSize=12;fontColor=#000000;" vertex="1" connectable="0" parent="46">
                    <mxGeometry x="0.0622" y="-2" relative="1" as="geometry">
                        <mxPoint as="offset"/>
                    </mxGeometry>
                </mxCell>
                <mxCell id="47" value="第三轮" style="edgeStyle=none;html=1;fontSize=12;fontColor=#000000;" edge="1" parent="1" source="43" target="10">
                    <mxGeometry relative="1" as="geometry"/>
                </mxCell>
                <mxCell id="43" value="ECS Windows&lt;br&gt;内网压测机" style="rounded=0;whiteSpace=wrap;html=1;fontSize=12;fillColor=#d5e8d4;strokeColor=#82b366;" vertex="1" parent="1">
                    <mxGeometry x="960" y="-20" width="120" height="60" as="geometry"/>
                </mxCell>
                <mxCell id="53" value="历史版本" style="shape=table;startSize=30;container=1;collapsible=0;childLayout=tableLayout;fontStyle=1;align=center;pointerEvents=1;fontSize=12;fontColor=#000000;" vertex="1" parent="1">
                    <mxGeometry x="120" y="-160" width="440" height="150" as="geometry"/>
                </mxCell>
                <mxCell id="54" value="" style="shape=partialRectangle;html=1;whiteSpace=wrap;collapsible=0;dropTarget=0;pointerEvents=0;fillColor=none;top=0;left=0;bottom=0;right=0;points=[[0,0.5],[1,0.5]];portConstraint=eastwest;fontSize=12;fontColor=#000000;" vertex="1" parent="53">
                    <mxGeometry y="30" width="440" height="40" as="geometry"/>
                </mxCell>
                <mxCell id="55" value="时间" style="shape=partialRectangle;html=1;whiteSpace=wrap;connectable=0;fillColor=none;top=0;left=0;bottom=0;right=0;overflow=hidden;pointerEvents=1;fontSize=12;fontColor=#000000;" vertex="1" parent="54">
                    <mxGeometry width="147" height="40" as="geometry">
                        <mxRectangle width="147" height="40" as="alternateBounds"/>
                    </mxGeometry>
                </mxCell>
                <mxCell id="56" value="作者" style="shape=partialRectangle;html=1;whiteSpace=wrap;connectable=0;fillColor=none;top=0;left=0;bottom=0;right=0;overflow=hidden;pointerEvents=1;fontSize=12;fontColor=#000000;" vertex="1" parent="54">
                    <mxGeometry x="147" width="146" height="40" as="geometry">
                        <mxRectangle width="146" height="40" as="alternateBounds"/>
                    </mxGeometry>
                </mxCell>
                <mxCell id="57" value="描述" style="shape=partialRectangle;html=1;whiteSpace=wrap;connectable=0;fillColor=none;top=0;left=0;bottom=0;right=0;overflow=hidden;pointerEvents=1;fontSize=12;fontColor=#000000;" vertex="1" parent="54">
                    <mxGeometry x="293" width="147" height="40" as="geometry">
                        <mxRectangle width="147" height="40" as="alternateBounds"/>
                    </mxGeometry>
                </mxCell>
                <mxCell id="58" value="" style="shape=partialRectangle;html=1;whiteSpace=wrap;collapsible=0;dropTarget=0;pointerEvents=0;fillColor=none;top=0;left=0;bottom=0;right=0;points=[[0,0.5],[1,0.5]];portConstraint=eastwest;fontSize=12;fontColor=#000000;" vertex="1" parent="53">
                    <mxGeometry y="70" width="440" height="40" as="geometry"/>
                </mxCell>
                <mxCell id="59" value="2022-09-13" style="shape=partialRectangle;html=1;whiteSpace=wrap;connectable=0;fillColor=none;top=0;left=0;bottom=0;right=0;overflow=hidden;pointerEvents=1;fontSize=12;fontColor=#000000;" vertex="1" parent="58">
                    <mxGeometry width="147" height="40" as="geometry">
                        <mxRectangle width="147" height="40" as="alternateBounds"/>
                    </mxGeometry>
                </mxCell>
                <mxCell id="60" value="陈景峰" style="shape=partialRectangle;html=1;whiteSpace=wrap;connectable=0;fillColor=none;top=0;left=0;bottom=0;right=0;overflow=hidden;pointerEvents=1;fontSize=12;fontColor=#000000;" vertex="1" parent="58">
                    <mxGeometry x="147" width="146" height="40" as="geometry">
                        <mxRectangle width="146" height="40" as="alternateBounds"/>
                    </mxGeometry>
                </mxCell>
                <mxCell id="61" value="首版" style="shape=partialRectangle;html=1;whiteSpace=wrap;connectable=0;fillColor=none;top=0;left=0;bottom=0;right=0;overflow=hidden;pointerEvents=1;fontSize=12;fontColor=#000000;" vertex="1" parent="58">
                    <mxGeometry x="293" width="147" height="40" as="geometry">
                        <mxRectangle width="147" height="40" as="alternateBounds"/>
                    </mxGeometry>
                </mxCell>
                <mxCell id="62" value="" style="shape=partialRectangle;html=1;whiteSpace=wrap;collapsible=0;dropTarget=0;pointerEvents=0;fillColor=none;top=0;left=0;bottom=0;right=0;points=[[0,0.5],[1,0.5]];portConstraint=eastwest;fontSize=12;fontColor=#000000;" vertex="1" parent="53">
                    <mxGeometry y="110" width="440" height="40" as="geometry"/>
                </mxCell>
                <mxCell id="63" value="" style="shape=partialRectangle;html=1;whiteSpace=wrap;connectable=0;fillColor=none;top=0;left=0;bottom=0;right=0;overflow=hidden;pointerEvents=1;fontSize=12;fontColor=#000000;" vertex="1" parent="62">
                    <mxGeometry width="147" height="40" as="geometry">
                        <mxRectangle width="147" height="40" as="alternateBounds"/>
                    </mxGeometry>
                </mxCell>
                <mxCell id="64" value="" style="shape=partialRectangle;html=1;whiteSpace=wrap;connectable=0;fillColor=none;top=0;left=0;bottom=0;right=0;overflow=hidden;pointerEvents=1;fontSize=12;fontColor=#000000;" vertex="1" parent="62">
                    <mxGeometry x="147" width="146" height="40" as="geometry">
                        <mxRectangle width="146" height="40" as="alternateBounds"/>
                    </mxGeometry>
                </mxCell>
                <mxCell id="65" value="" style="shape=partialRectangle;html=1;whiteSpace=wrap;connectable=0;fillColor=none;top=0;left=0;bottom=0;right=0;overflow=hidden;pointerEvents=1;fontSize=12;fontColor=#000000;" vertex="1" parent="62">
                    <mxGeometry x="293" width="147" height="40" as="geometry">
                        <mxRectangle width="147" height="40" as="alternateBounds"/>
                    </mxGeometry>
                </mxCell>
            </root>
        </mxGraphModel>
    </diagram>
    <diagram id="0wEWoSI8y_XW-JhOcTYu" name="第 2 页">
        <mxGraphModel dx="968" dy="730" grid="1" gridSize="10" guides="1" tooltips="1" connect="1" arrows="1" fold="1" page="1" pageScale="1" pageWidth="1169" pageHeight="827" math="0" shadow="0">
            <root>
                <mxCell id="fKRSrs21CbrT-Yc94qYM-0"/>
                <mxCell id="fKRSrs21CbrT-Yc94qYM-1" parent="fKRSrs21CbrT-Yc94qYM-0"/>
                <mxCell id="hyJMgh6mv5LhJGvRlSzz-0" value="Kubernetes 集群" style="swimlane;horizontal=0;" vertex="1" parent="fKRSrs21CbrT-Yc94qYM-1">
                    <mxGeometry x="1130" y="200" width="740" height="270" as="geometry"/>
                </mxCell>
                <mxCell id="hyJMgh6mv5LhJGvRlSzz-1" value="ingress 80" style="swimlane;fontStyle=0;childLayout=stackLayout;horizontal=1;startSize=30;horizontalStack=0;resizeParent=1;resizeParentMax=0;resizeLast=0;collapsible=1;marginBottom=0;" vertex="1" parent="hyJMgh6mv5LhJGvRlSzz-0">
                    <mxGeometry x="51" y="40" width="140" height="120" as="geometry"/>
                </mxCell>
                <mxCell id="hyJMgh6mv5LhJGvRlSzz-2" value="/oreo" style="text;strokeColor=none;fillColor=none;align=left;verticalAlign=middle;spacingLeft=4;spacingRight=4;overflow=hidden;points=[[0,0.5],[1,0.5]];portConstraint=eastwest;rotatable=0;" vertex="1" parent="hyJMgh6mv5LhJGvRlSzz-1">
                    <mxGeometry y="30" width="140" height="30" as="geometry"/>
                </mxCell>
                <mxCell id="hyJMgh6mv5LhJGvRlSzz-3" value="/eapi" style="text;strokeColor=none;fillColor=none;align=left;verticalAlign=middle;spacingLeft=4;spacingRight=4;overflow=hidden;points=[[0,0.5],[1,0.5]];portConstraint=eastwest;rotatable=0;" vertex="1" parent="hyJMgh6mv5LhJGvRlSzz-1">
                    <mxGeometry y="60" width="140" height="30" as="geometry"/>
                </mxCell>
                <mxCell id="hyJMgh6mv5LhJGvRlSzz-4" value="/pages" style="text;strokeColor=none;fillColor=none;align=left;verticalAlign=middle;spacingLeft=4;spacingRight=4;overflow=hidden;points=[[0,0.5],[1,0.5]];portConstraint=eastwest;rotatable=0;" vertex="1" parent="hyJMgh6mv5LhJGvRlSzz-1">
                    <mxGeometry y="90" width="140" height="30" as="geometry"/>
                </mxCell>
                <mxCell id="hyJMgh6mv5LhJGvRlSzz-5" value="" style="edgeStyle=none;html=1;" edge="1" parent="hyJMgh6mv5LhJGvRlSzz-0" source="hyJMgh6mv5LhJGvRlSzz-7" target="hyJMgh6mv5LhJGvRlSzz-9">
                    <mxGeometry relative="1" as="geometry"/>
                </mxCell>
                <mxCell id="hyJMgh6mv5LhJGvRlSzz-6" style="edgeStyle=none;html=1;" edge="1" parent="hyJMgh6mv5LhJGvRlSzz-0" source="hyJMgh6mv5LhJGvRlSzz-7" target="hyJMgh6mv5LhJGvRlSzz-10">
                    <mxGeometry relative="1" as="geometry"/>
                </mxCell>
                <mxCell id="hyJMgh6mv5LhJGvRlSzz-7" value="Service" style="rounded=0;whiteSpace=wrap;html=1;" vertex="1" parent="hyJMgh6mv5LhJGvRlSzz-0">
                    <mxGeometry x="231" y="85" width="120" height="60" as="geometry"/>
                </mxCell>
                <mxCell id="hyJMgh6mv5LhJGvRlSzz-8" style="edgeStyle=none;html=1;" edge="1" parent="hyJMgh6mv5LhJGvRlSzz-0" source="hyJMgh6mv5LhJGvRlSzz-3" target="hyJMgh6mv5LhJGvRlSzz-7">
                    <mxGeometry relative="1" as="geometry"/>
                </mxCell>
                <mxCell id="hyJMgh6mv5LhJGvRlSzz-9" value="Gateway&lt;br&gt;Pod" style="rounded=0;whiteSpace=wrap;html=1;" vertex="1" parent="hyJMgh6mv5LhJGvRlSzz-0">
                    <mxGeometry x="390" y="20" width="120" height="60" as="geometry"/>
                </mxCell>
                <mxCell id="hyJMgh6mv5LhJGvRlSzz-10" value="Oreo&lt;br&gt;Pod" style="rounded=0;whiteSpace=wrap;html=1;" vertex="1" parent="hyJMgh6mv5LhJGvRlSzz-0">
                    <mxGeometry x="390" y="100" width="120" height="60" as="geometry"/>
                </mxCell>
                <mxCell id="hyJMgh6mv5LhJGvRlSzz-11" value="eapi&lt;br&gt;Pod" style="rounded=0;whiteSpace=wrap;html=1;" vertex="1" parent="hyJMgh6mv5LhJGvRlSzz-0">
                    <mxGeometry x="390" y="183.5" width="120" height="60" as="geometry"/>
                </mxCell>
                <mxCell id="hyJMgh6mv5LhJGvRlSzz-12" style="edgeStyle=none;html=1;" edge="1" parent="hyJMgh6mv5LhJGvRlSzz-0" source="hyJMgh6mv5LhJGvRlSzz-7" target="hyJMgh6mv5LhJGvRlSzz-11">
                    <mxGeometry relative="1" as="geometry"/>
                </mxCell>
                <mxCell id="hyJMgh6mv5LhJGvRlSzz-13" value="" style="edgeStyle=none;html=1;" edge="1" parent="fKRSrs21CbrT-Yc94qYM-1" source="hyJMgh6mv5LhJGvRlSzz-14" target="hyJMgh6mv5LhJGvRlSzz-16">
                    <mxGeometry relative="1" as="geometry"/>
                </mxCell>
                <mxCell id="hyJMgh6mv5LhJGvRlSzz-14" value="Tester" style="shape=umlActor;verticalLabelPosition=bottom;verticalAlign=top;html=1;outlineConnect=0;" vertex="1" parent="fKRSrs21CbrT-Yc94qYM-1">
                    <mxGeometry x="40" y="280" width="30" height="60" as="geometry"/>
                </mxCell>
                <mxCell id="hyJMgh6mv5LhJGvRlSzz-15" value="" style="edgeStyle=none;html=1;" edge="1" parent="fKRSrs21CbrT-Yc94qYM-1" source="hyJMgh6mv5LhJGvRlSzz-16" target="hyJMgh6mv5LhJGvRlSzz-18">
                    <mxGeometry relative="1" as="geometry"/>
                </mxCell>
                <mxCell id="hyJMgh6mv5LhJGvRlSzz-16" value="DNS" style="whiteSpace=wrap;html=1;verticalAlign=middle;" vertex="1" parent="fKRSrs21CbrT-Yc94qYM-1">
                    <mxGeometry x="105" y="280" width="120" height="60" as="geometry"/>
                </mxCell>
                <mxCell id="hyJMgh6mv5LhJGvRlSzz-17" value="" style="edgeStyle=none;html=1;" edge="1" parent="fKRSrs21CbrT-Yc94qYM-1" source="hyJMgh6mv5LhJGvRlSzz-18" target="hyJMgh6mv5LhJGvRlSzz-21">
                    <mxGeometry relative="1" as="geometry"/>
                </mxCell>
                <mxCell id="hyJMgh6mv5LhJGvRlSzz-18" value="WAF" style="whiteSpace=wrap;html=1;verticalAlign=middle;" vertex="1" parent="fKRSrs21CbrT-Yc94qYM-1">
                    <mxGeometry x="305" y="280" width="120" height="60" as="geometry"/>
                </mxCell>
                <mxCell id="hyJMgh6mv5LhJGvRlSzz-19" value="" style="edgeStyle=none;html=1;" edge="1" parent="fKRSrs21CbrT-Yc94qYM-1" source="hyJMgh6mv5LhJGvRlSzz-21" target="hyJMgh6mv5LhJGvRlSzz-23">
                    <mxGeometry relative="1" as="geometry"/>
                </mxCell>
                <mxCell id="hyJMgh6mv5LhJGvRlSzz-20" value="" style="edgeStyle=none;html=1;" edge="1" parent="fKRSrs21CbrT-Yc94qYM-1" source="hyJMgh6mv5LhJGvRlSzz-21" target="hyJMgh6mv5LhJGvRlSzz-25">
                    <mxGeometry relative="1" as="geometry"/>
                </mxCell>
                <mxCell id="hyJMgh6mv5LhJGvRlSzz-21" value="WLAN&lt;br&gt;SLB&lt;br&gt;SSL" style="whiteSpace=wrap;html=1;verticalAlign=middle;" vertex="1" parent="fKRSrs21CbrT-Yc94qYM-1">
                    <mxGeometry x="505" y="280" width="120" height="60" as="geometry"/>
                </mxCell>
                <mxCell id="hyJMgh6mv5LhJGvRlSzz-22" style="edgeStyle=none;html=1;" edge="1" parent="fKRSrs21CbrT-Yc94qYM-1" source="hyJMgh6mv5LhJGvRlSzz-23" target="hyJMgh6mv5LhJGvRlSzz-27">
                    <mxGeometry relative="1" as="geometry"/>
                </mxCell>
                <mxCell id="hyJMgh6mv5LhJGvRlSzz-23" value="Openresy 网关&lt;br&gt;ejiayou001" style="whiteSpace=wrap;html=1;verticalAlign=middle;" vertex="1" parent="fKRSrs21CbrT-Yc94qYM-1">
                    <mxGeometry x="720" y="200" width="120" height="60" as="geometry"/>
                </mxCell>
                <mxCell id="hyJMgh6mv5LhJGvRlSzz-24" style="edgeStyle=none;html=1;" edge="1" parent="fKRSrs21CbrT-Yc94qYM-1" source="hyJMgh6mv5LhJGvRlSzz-25" target="hyJMgh6mv5LhJGvRlSzz-27">
                    <mxGeometry relative="1" as="geometry"/>
                </mxCell>
                <mxCell id="hyJMgh6mv5LhJGvRlSzz-25" value="Openresy 网关&lt;br&gt;ejiayou002" style="whiteSpace=wrap;html=1;verticalAlign=middle;" vertex="1" parent="fKRSrs21CbrT-Yc94qYM-1">
                    <mxGeometry x="720" y="340" width="120" height="60" as="geometry"/>
                </mxCell>
                <mxCell id="hyJMgh6mv5LhJGvRlSzz-26" style="edgeStyle=none;html=1;" edge="1" parent="fKRSrs21CbrT-Yc94qYM-1" source="hyJMgh6mv5LhJGvRlSzz-27" target="hyJMgh6mv5LhJGvRlSzz-0">
                    <mxGeometry relative="1" as="geometry"/>
                </mxCell>
                <mxCell id="hyJMgh6mv5LhJGvRlSzz-27" value="K8s LAN&lt;br&gt;SLB" style="rounded=0;whiteSpace=wrap;html=1;" vertex="1" parent="fKRSrs21CbrT-Yc94qYM-1">
                    <mxGeometry x="920" y="270" width="120" height="60" as="geometry"/>
                </mxCell>
            </root>
        </mxGraphModel>
    </diagram>
</mxfile>